<?xml version="1.0" encoding="utf-8"?>
<!-- Generator: Adobe Illustrator 24.0.3, SVG Export Plug-In . SVG Version: 6.00 Build 0)  -->
<!DOCTYPE svg PUBLIC "-//W3C//DTD SVG 1.1//EN" "http://www.w3.org/Graphics/SVG/1.1/DTD/svg11.dtd" [
	<!ENTITY ns_extend "http://ns.adobe.com/Extensibility/1.0/">
	<!ENTITY ns_ai "http://ns.adobe.com/AdobeIllustrator/10.0/">
	<!ENTITY ns_graphs "http://ns.adobe.com/Graphs/1.0/">
	<!ENTITY ns_vars "http://ns.adobe.com/Variables/1.0/">
	<!ENTITY ns_imrep "http://ns.adobe.com/ImageReplacement/1.0/">
	<!ENTITY ns_sfw "http://ns.adobe.com/SaveForWeb/1.0/">
	<!ENTITY ns_custom "http://ns.adobe.com/GenericCustomNamespace/1.0/">
	<!ENTITY ns_adobe_xpath "http://ns.adobe.com/XPath/1.0/">
]>
<svg version="1.1" id="Ebene_1" xmlns:x="&ns_extend;" xmlns:i="&ns_ai;" xmlns:graph="&ns_graphs;"
	 xmlns="http://www.w3.org/2000/svg" xmlns:xlink="http://www.w3.org/1999/xlink" x="0px" y="0px" viewBox="0 0 502.2 345.9"
	 style="enable-background:new 0 0 502.2 345.9;" xml:space="preserve">
<style type="text/css">
	.st0{fill:url(#SVGID_1_);}
	.st1{fill:none;stroke:#FFFFFF;stroke-width:2;stroke-miterlimit:10;}
	.st2{fill:#E52528;}
	.st3{fill:#F3E600;}
	.st4{fill:#66B32E;}
	.st5{fill:#D4155B;}
	.st6{fill:#00AA9E;}
	.st7{fill:#FFFFFF;}
</style>
<metadata>
	<sfw  xmlns="&ns_sfw;">
		<slices></slices>
		<sliceSourceBounds  bottomLeftOrigin="true" height="345.9" width="502.2" x="48.9" y="127"></sliceSourceBounds>
	</sfw>
</metadata>
<g>
	
		<linearGradient id="SVGID_1_" gradientUnits="userSpaceOnUse" x1="386.1885" y1="-59.1302" x2="116.028" y2="408.8015" gradientTransform="matrix(1 0 0 -1 0 347.8)">
		<stop  offset="0" style="stop-color:#808081"/>
		<stop  offset="0.7044" style="stop-color:#333333"/>
	</linearGradient>
	<path class="st0" d="M488.1,345.9h-474c-7.7,0-14-6.3-14-14V14c0-7.7,6.3-14,14-14h474c7.7,0,14,6.3,14,14v317.9
		C502.2,339.6,495.9,345.9,488.1,345.9z"/>
	<line class="st1" x1="0" y1="30.5" x2="502.2" y2="30.5"/>
</g>
<circle class="st2" cx="20.7" cy="15.5" r="6.9"/>
<circle class="st3" cx="42.1" cy="15.5" r="6.9"/>
<circle class="st4" cx="63.6" cy="15.5" r="6.9"/>
<g>
	<g>
		<path class="st5" d="M22.6,110.1v-2.6l13.2-8.8v3.3l-10.2,6.7v0.1l10.2,6.7v3.3L22.6,110.1z"/>
		<path class="st5" d="M41.4,111.9c0-5.6,3.7-9,7.6-9c2,0,3.5,0.8,4.9,2.1H54l-0.2-3v-6.4h3.5v24.8h-2.9l-0.3-2.1l0,0
			c-1.4,1.4-3.3,2.5-5.4,2.5C44.3,120.9,41.4,117.6,41.4,111.9z M53.8,115.7v-8.1c-1.4-1.3-2.7-1.8-4-1.8c-2.7,0-4.9,2.3-4.9,6.1
			c0,3.9,1.7,6.1,4.6,6.1C51.1,118,52.5,117.2,53.8,115.7z"/>
		<path class="st5" d="M71.1,106.1h-7.6v-2.8h11.1v17.1h-3.5V106.1z M70,97.5c0-1.5,1.1-2.5,2.6-2.5s2.6,1,2.6,2.5s-1.1,2.5-2.6,2.5
			S70,99,70,97.5z"/>
		<path class="st5" d="M83,103.3h3.5l3.6,9.3c0.6,1.7,1.2,3.4,1.8,5.1H92c0.6-1.7,1.1-3.4,1.8-5.1l3.6-9.3h3.3l-6.9,17.1h-3.9
			L83,103.3z"/>
		<path class="st6" d="M126.1,111.9c0-5.7,4.4-9,9.6-9c2.8,0,4.9,1.1,6.3,2.5l-1.7,2.2c-1.4-1.1-2.8-1.8-4.4-1.8
			c-3.7,0-6.2,2.4-6.2,6.1c0,3.7,2.5,6.1,6.1,6.1c2,0,3.7-0.9,5.1-2l1.5,2.2c-1.9,1.7-4.4,2.6-6.9,2.6
			C130.1,120.9,126.1,117.6,126.1,111.9z"/>
		<path class="st6" d="M152.6,114.5v-16h-5.9v-2.8h9.4v19c0,2.4,1.3,3.3,3.2,3.3c0.9,0,1.9-0.2,3.1-0.7l0.8,2.6
			c-1.6,0.6-2.8,1-4.7,1C154.7,120.9,152.6,118.6,152.6,114.5z"/>
		<path class="st6" d="M168,115.9c0-3.8,3.5-5.7,12.1-6.4c-0.1-2.1-1.3-3.8-4.3-3.8c-2.1,0-4.1,0.9-5.8,1.9l-1.3-2.3
			c1.9-1.2,4.8-2.4,7.7-2.4c4.7,0,7.2,2.7,7.2,7.2v10.3h-2.9l-0.3-2.2h-0.1c-1.8,1.4-4.2,2.6-6.5,2.6
			C170.5,120.9,168,118.9,168,115.9z M180.1,115.8v-4c-6.7,0.5-8.7,1.8-8.7,3.9c0,1.7,1.5,2.4,3.4,2.4
			C176.6,118.1,178.4,117.2,180.1,115.8z"/>
		<path class="st6" d="M188.7,118.2l1.6-2.3c2,1.4,4.3,2.2,7.3,2.2c2.6,0,3.9-1,3.9-2.3c0-1.2-0.7-2-5-2.9c-4.5-0.9-6.6-2.5-6.6-5.1
			c0-2.9,2.6-5,7.3-5c2.7,0,5.3,1.1,7,2.2l-1.6,2.2c-1.6-1.1-3.6-1.8-5.7-1.8c-2.5,0-3.5,1-3.5,2.2c0,1.3,1.4,1.9,4.7,2.6
			c5.6,1.2,7,2.7,7,5.3c0,2.9-2.8,5.2-7.8,5.2C193.8,120.9,190.8,119.7,188.7,118.2z"/>
		<path class="st6" d="M209.7,118.2l1.6-2.3c2,1.4,4.3,2.2,7.3,2.2c2.6,0,3.9-1,3.9-2.3c0-1.2-0.7-2-5-2.9c-4.5-0.9-6.6-2.5-6.6-5.1
			c0-2.9,2.6-5,7.3-5c2.7,0,5.3,1.1,7,2.2l-1.6,2.2c-1.6-1.1-3.6-1.8-5.7-1.8c-2.5,0-3.5,1-3.5,2.2c0,1.3,1.4,1.9,4.7,2.6
			c5.6,1.2,7,2.7,7,5.3c0,2.9-2.8,5.2-7.8,5.2C214.8,120.9,211.8,119.7,209.7,118.2z"/>
		<path class="st6" d="M231.2,103.8h15.3v2.5h-15.3V103.8z M231.2,111.5h15.3v2.5h-15.3V111.5z"/>
		<path class="st6" d="M252.3,104.2c0-3.6,1.9-6.5,5.3-8.2l1,2c-2.4,1.3-3.7,3.2-3.7,5.9l0.5,2.9l-2-2.5c0.6-0.6,1.5-1.1,2.3-1.1
			c1.5,0,2.6,1.1,2.6,2.7c0,1.7-1.1,2.9-2.8,2.9C253.7,108.8,252.3,107.1,252.3,104.2z M260.7,104.2c0-3.6,1.9-6.5,5.3-8.2l1,2
			c-2.4,1.3-3.7,3.2-3.7,5.9l0.5,2.9l-2-2.5c0.6-0.6,1.5-1.1,2.3-1.1c1.5,0,2.6,1.1,2.6,2.7c0,1.7-1.1,2.9-2.8,2.9
			C262,108.8,260.7,107.1,260.7,104.2z"/>
		<path class="st6" d="M273.1,111.9c0-5.7,4.4-9,9.6-9c2.8,0,4.9,1.1,6.3,2.5l-1.7,2.2c-1.4-1.1-2.8-1.8-4.4-1.8
			c-3.7,0-6.2,2.4-6.2,6.1c0,3.7,2.5,6.1,6.1,6.1c2,0,3.7-0.9,5.1-2l1.5,2.2c-1.9,1.7-4.4,2.6-6.9,2.6
			C277.1,120.9,273.1,117.6,273.1,111.9z"/>
		<path class="st6" d="M293.4,111.9c0-5.7,4-9,8.5-9s8.5,3.3,8.5,9s-4,8.9-8.5,8.9S293.4,117.6,293.4,111.9z M306.8,111.9
			c0-3.7-1.9-6.1-4.9-6.1s-4.9,2.4-4.9,6.1c0,3.7,1.9,6.1,4.9,6.1S306.8,115.6,306.8,111.9z"/>
		<path class="st6" d="M314.4,111.9c0-5.6,3.7-9,7.6-9c2,0,3.5,0.8,4.9,2.1h0.1l-0.2-3v-6.4h3.5v24.8h-2.9l-0.3-2.1l0,0
			c-1.4,1.4-3.3,2.5-5.4,2.5C317.3,120.9,314.4,117.6,314.4,111.9z M326.8,115.7v-8.1c-1.4-1.3-2.7-1.8-4-1.8
			c-2.7,0-4.8,2.3-4.8,6.1c0,3.9,1.7,6.1,4.6,6.1C324.1,118,325.5,117.2,326.8,115.7z"/>
		<path class="st6" d="M335.7,111.9c0-5.6,4.2-8.9,8.8-8.9c5,0,7.9,3.3,7.9,8.1c0,0.7-0.1,1.4-0.2,1.9h-14.1v-2.6H350l-0.8,0.9
			c0-3.7-1.8-5.6-4.7-5.6c-3,0-5.4,2.2-5.4,6.2c0,4.2,2.6,6.3,6.3,6.3c1.9,0,3.5-0.6,5-1.5l1.2,2.2c-1.8,1.2-4,2-6.7,2
			C339.8,120.9,335.7,117.6,335.7,111.9z"/>
		<path class="st6" d="M357.3,104.2c0-3.6,1.9-6.5,5.3-8.2l1,2c-2.4,1.3-3.7,3.2-3.7,5.9l0.5,2.9l-2-2.5c0.6-0.6,1.5-1.1,2.3-1.1
			c1.5,0,2.6,1.1,2.6,2.7c0,1.7-1.1,2.9-2.8,2.9C358.7,108.8,357.3,107.1,357.3,104.2z M365.7,104.2c0-3.6,1.9-6.5,5.3-8.2l1,2
			c-2.4,1.3-3.7,3.2-3.7,5.9l0.5,2.9l-2-2.5c0.6-0.6,1.5-1.1,2.3-1.1c1.5,0,2.6,1.1,2.6,2.7c0,1.7-1.1,2.9-2.8,2.9
			C367,108.8,365.7,107.1,365.7,104.2z"/>
		<path class="st5" d="M379.1,115.6l10.2-6.7v-0.1l-10.2-6.7v-3.3l13.2,8.8v2.6l-13.2,8.7V115.6z"/>
		<path class="st5" d="M58.6,152.1v-2.6l13.2-8.8v3.3l-10.2,6.7v0.1l10.2,6.7v3.3L58.6,152.1z"/>
		<path class="st5" d="M78.5,137.6H82v6.6l-0.2,3.8h0.1c1.6-1.7,3.6-3.1,6.2-3.1c4,0,5.8,2.5,5.8,6.9v10.6h-3.5v-10.2
			c0-3-1-4.4-3.5-4.4c-1.9,0-3.1,0.9-4.9,2.7v11.8h-3.5C78.5,162.3,78.5,137.6,78.5,137.6z"/>
		<path class="st5" d="M99.6,159.6h6.3v-15.5h-5v-2.2c2.7-0.4,4.4-0.9,5.9-1.7h2.6v19.4h5.6v2.9H99.6L99.6,159.6L99.6,159.6z"/>
		<path class="st5" d="M121.1,157.6l10.2-6.7v-0.1l-10.2-6.7v-3.3l13.2,8.8v2.6l-13.2,8.7V157.6z"/>
		<path class="st7" d="M141,139.5h3.5v9.4h8.7v-9.4h3.5v22.9h-3.5v-10.5h-8.7v10.5H141V139.5z"/>
		<path class="st7" d="M161.7,153.9c0-5.6,4.2-8.9,8.8-8.9c5,0,7.9,3.3,7.9,8.1c0,0.7-0.1,1.4-0.2,1.9h-14.1v-2.6H176l-0.8,0.9
			c0-3.7-1.8-5.6-4.7-5.6c-3,0-5.4,2.2-5.4,6.2c0,4.2,2.6,6.3,6.3,6.3c1.9,0,3.5-0.6,5-1.5l1.2,2.2c-1.8,1.2-4,2-6.7,2
			C165.8,162.9,161.7,159.6,161.7,153.9z"/>
		<path class="st7" d="M188.6,156.5v-16h-5.9v-2.8h9.4v19c0,2.4,1.3,3.3,3.2,3.3c0.9,0,1.9-0.2,3.1-0.7l0.8,2.6
			c-1.6,0.6-2.8,1-4.7,1C190.7,162.9,188.6,160.6,188.6,156.5z"/>
		<path class="st7" d="M209.6,156.5v-16h-5.9v-2.8h9.4v19c0,2.4,1.3,3.3,3.2,3.3c0.9,0,1.9-0.2,3.1-0.7l0.8,2.6
			c-1.6,0.6-2.8,1-4.7,1C211.7,162.9,209.6,160.6,209.6,156.5z"/>
		<path class="st7" d="M224.4,153.9c0-5.7,4-9,8.5-9s8.5,3.3,8.5,9s-4,8.9-8.5,8.9C228.4,162.9,224.4,159.6,224.4,153.9z
			 M237.8,153.9c0-3.7-1.9-6.1-4.9-6.1s-4.9,2.4-4.9,6.1s1.9,6.1,4.9,6.1C235.9,160,237.8,157.6,237.8,153.9z"/>
		<path class="st7" d="M264.7,139.5h3.8l1.4,13.8c0.2,1.9,0.3,3.2,0.4,5.4h0.1c0.4-2.2,0.7-3.5,1.1-5.4l2.1-8h2.9l2,8
			c0.5,1.9,0.7,3.2,1.1,5.4h0.1c0.1-2.2,0.2-3.5,0.3-5.4l1.4-13.9h3.6l-3.2,23h-4.1l-2-8.7c-0.3-1.4-0.6-2.8-0.8-4.2h-0.1
			c-0.2,1.4-0.4,2.8-0.8,4.2l-2,8.7h-4L264.7,139.5z"/>
		<path class="st7" d="M287.4,153.9c0-5.7,4-9,8.5-9s8.5,3.3,8.5,9s-4,8.9-8.5,8.9S287.4,159.6,287.4,153.9z M300.8,153.9
			c0-3.7-1.9-6.1-4.9-6.1s-4.9,2.4-4.9,6.1s1.9,6.1,4.9,6.1S300.8,157.6,300.8,153.9z"/>
		<path class="st7" d="M311.2,145.3h2.9l0.3,4h0.1c1.8-2.8,4.4-4.4,7.5-4.4c1.3,0,2.3,0.2,3.4,0.7l-0.8,3c-1.2-0.4-1.8-0.5-3.1-0.5
			c-2.5,0-4.8,1.2-6.7,4.7v9.7h-3.5L311.2,145.3L311.2,145.3z"/>
		<path class="st7" d="M335.6,156.5v-16h-5.9v-2.8h9.4v19c0,2.4,1.3,3.3,3.2,3.3c0.9,0,1.9-0.2,3.1-0.7l0.8,2.6
			c-1.6,0.6-2.8,1-4.7,1C337.7,162.9,335.6,160.6,335.6,156.5z"/>
		<path class="st7" d="M350.4,153.9c0-5.6,3.7-9,7.6-9c2,0,3.5,0.8,4.9,2.1h0.1l-0.2-3v-6.4h3.5v24.8h-2.9l-0.3-2.1l0,0
			c-1.4,1.4-3.3,2.5-5.4,2.5C353.3,162.9,350.4,159.6,350.4,153.9z M362.8,157.7v-8.1c-1.4-1.3-2.7-1.8-4-1.8
			c-2.7,0-4.8,2.3-4.8,6.1c0,3.9,1.7,6.1,4.6,6.1C360.1,160,361.5,159.2,362.8,157.7z"/>
		<path class="st5" d="M373.6,152.1v-2.6l13.2-8.8v3.3l-10.2,6.7v0.1l10.2,6.7v3.3L373.6,152.1z"/>
		<path class="st5" d="M405.1,137.6h3l-11.5,30.5h-3L405.1,137.6z"/>
		<path class="st5" d="M414.5,137.6h3.5v6.6l-0.2,3.8h0.1c1.6-1.7,3.6-3.1,6.2-3.1c4,0,5.8,2.5,5.8,6.9v10.6h-3.5v-10.2
			c0-3-1-4.4-3.5-4.4c-1.9,0-3.1,0.9-4.9,2.7v11.8h-3.5V137.6z"/>
		<path class="st5" d="M435.6,159.6h6.3v-15.5h-5v-2.2c2.7-0.4,4.4-0.9,5.9-1.7h2.6v19.4h5.6v2.9h-15.4V159.6z"/>
		<path class="st5" d="M457.1,157.6l10.2-6.7v-0.1l-10.2-6.7v-3.3l13.2,8.8v2.6l-13.2,8.7V157.6z"/>
		<path class="st5" d="M58.6,194.1v-2.6l13.2-8.8v3.3l-10.2,6.7v0.1l10.2,6.7v3.3L58.6,194.1z"/>
		<path class="st5" d="M78.5,179.6H82v6.6l-0.2,3.8h0.1c1.6-1.7,3.6-3.1,6.2-3.1c4,0,5.8,2.5,5.8,6.9v10.6h-3.5v-10.2
			c0-3-1-4.4-3.5-4.4c-1.9,0-3.1,0.9-4.9,2.7v11.8h-3.5C78.5,204.3,78.5,179.6,78.5,179.6z"/>
		<path class="st5" d="M101.2,187.3h2.9l0.3,4h0.1c1.8-2.8,4.4-4.4,7.5-4.4c1.3,0,2.3,0.2,3.4,0.7l-0.8,3c-1.2-0.4-1.8-0.5-3.1-0.5
			c-2.5,0-4.8,1.2-6.7,4.7v9.7h-3.5L101.2,187.3L101.2,187.3z"/>
		<path class="st5" d="M121.1,199.6l10.2-6.7v-0.1l-10.2-6.7v-3.3l13.2,8.8v2.6l-13.2,8.7V199.6z"/>
		<path class="st5" d="M22.6,236.1v-2.6l13.2-8.8v3.3l-10.2,6.7v0.1l10.2,6.7v3.3L22.6,236.1z"/>
		<path class="st5" d="M54.1,221.6h3l-11.5,30.5h-3L54.1,221.6z"/>
		<path class="st5" d="M62.4,237.9c0-5.6,3.7-9,7.6-9c2,0,3.5,0.8,4.9,2.1H75l-0.2-3v-6.4h3.5v24.8h-2.9l-0.3-2.1l0,0
			c-1.4,1.4-3.3,2.5-5.4,2.5C65.3,246.9,62.4,243.6,62.4,237.9z M74.8,241.7v-8.1c-1.4-1.3-2.7-1.8-4-1.8c-2.7,0-4.9,2.3-4.9,6.1
			c0,3.9,1.7,6.1,4.6,6.1C72.1,244,73.5,243.2,74.8,241.7z"/>
		<path class="st5" d="M92.1,232.1h-7.6v-2.8h11.1v17.1h-3.5V232.1z M91,223.5c0-1.5,1.1-2.5,2.6-2.5s2.6,1,2.6,2.5
			s-1.1,2.5-2.6,2.5S91,225,91,223.5z"/>
		<path class="st5" d="M104,229.3h3.5l3.6,9.3c0.6,1.7,1.2,3.4,1.8,5.1h0.1c0.6-1.7,1.1-3.4,1.8-5.1l3.6-9.3h3.3l-6.9,17.1h-3.9
			L104,229.3z"/>
		<path class="st5" d="M127.1,241.6l10.2-6.7v-0.1l-10.2-6.7v-3.3l13.2,8.8v2.6l-13.2,8.7V241.6z"/>
	</g>
</g>
</svg>
