<?xml version="1.0" encoding="utf-8"?>
<!-- Generator: Adobe Illustrator 23.0.5, SVG Export Plug-In . SVG Version: 6.00 Build 0)  -->
<svg version="1.1" id="Слой_1" xmlns="http://www.w3.org/2000/svg" xmlns:xlink="http://www.w3.org/1999/xlink" x="0px" y="0px"
	 viewBox="0 0 203 200.7" style="enable-background:new 0 0 203 200.7;" xml:space="preserve">
<style type="text/css">
	.st0{fill:#256865;}
	.st1{fill:#21635E;}
	.st2{fill:#195B58;}
	.st3{fill:#3B7271;}
	.st4{fill:#DBB49A;}
	.st5{fill:#CCA489;}
	.st6{fill:#C49D82;}
	.st7{fill:#60605F;}
	.st8{fill:#565655;}
	.st9{fill:#565654;}
	.st10{fill:#4F4F4E;}
	.st11{fill:#AD7A38;}
	.st12{fill:#474C54;}
	.st13{fill:#A56C2F;}
	.st14{fill:#666666;}
	.st15{fill:#515150;}
	.st16{fill:#965922;}
	.st17{fill:#BA8245;}
	.st18{fill:#275B59;}
	.st19{fill:#45827F;}
	.st20{fill:#E8C5AF;}
	.st21{fill:#EAEAE8;}
</style>
<g>
	<path class="st0" d="M102.5,52.6c9.8,0,20.5-0.4,30.1,1.5c8.7,1.7,18.3,4.7,26.3,8.4c5.7,2.7,11.2,6.7,15.8,11c2.1,2,3.5,4.5,4.9,7
		c3.5,6.3,6.8,12.2,9.2,19c2.5,7,5,14.1,7.5,21.1c2.1,6,3.8,11.9,5,18.2c1,5.5,2.7,10.1,0.9,15.9c-2.2,7.2-8.3,12.4-14.2,17
		c-4.7,3.6-9.5,7.1-14.8,9.8c-5.8,2.9-12,3.6-18.4,4.7c-8.5,1.4-17.2,0.2-25.7,0.8c-8.2,0.6-15.9,0.7-24.1,0.3c-1,0-1.8,0-2.6-0.1
		V52.6z"/>
	<path class="st1" d="M201.3,137.5c-1.2-6.3-2.9-12.2-5-18.2c-2.5-7-5-14.1-7.5-21.1c-2.4-6.8-5.7-12.7-9.2-19c-1.4-2.5-2.8-5-4.9-7
		c-4.6-4.3-10.1-8.3-15.8-11c-8-3.8-17.7-6.8-26.3-8.4c-8.7-1.7-18.1-1.6-27-1.5c6.1,0.1,12.2,0.4,18,1.5c8.7,1.7,18.3,4.7,26.3,8.4
		c5.7,2.7,11.2,6.7,15.8,11c2.1,2,3.5,4.5,4.9,7c3.5,6.3,6.8,12.2,9.2,19c2.5,7,5,14.1,7.5,21.1c2.1,6,3.8,11.9,5,18.2
		c1,5.5,2.7,10.1,0.9,15.9c-2.2,7.2-8.3,12.4-14.2,17c-4.7,3.6-9.5,7.1-14.8,9.8c-5.8,2.9-12,3.6-18.4,4.7c-2.3,0.4-4.6,0.6-7,0.7
		c5.3,0.1,10.7,0.2,16-0.7c6.4-1.1,12.6-1.8,18.4-4.7c5.3-2.7,10.1-6.1,14.8-9.8c5.9-4.6,12-9.8,14.2-17
		C204,147.6,202.4,143.1,201.3,137.5z"/>
	<path class="st1" d="M120.1,185.7c-3.4,0.2-6.8,0.4-10.1,0.5c6.4,0.1,12.6,0,19.1-0.5c0.8-0.1,1.6-0.1,2.4-0.1
		C127.7,185.5,123.9,185.4,120.1,185.7z"/>
	<g>
		<g>
			<path class="st2" d="M183.8,150.4c-4-4.4-8.9-7.5-14.6-9.3c-1.6-0.5-2.3,2-0.7,2.5c5.2,1.6,9.8,4.6,13.5,8.7
				C183.1,153.4,185,151.6,183.8,150.4L183.8,150.4z"/>
		</g>
	</g>
	<path class="st3" d="M100.6,52.6c-9.8,0-20.5-0.4-30.1,1.5c-8.7,1.7-18.3,4.7-26.3,8.4c-5.7,2.7-11.2,6.7-15.8,11
		c-2.1,2-3.5,4.5-4.9,7c-3.5,6.3-6.8,12.2-9.2,19c-2.5,7-5,14.1-7.5,21.1c-2.1,6-3.8,11.9-5,18.2c-1,5.5-2.7,10.1-0.9,15.9
		c2.2,7.2,8.3,12.4,14.2,17c4.7,3.6,9.5,7.1,14.8,9.8c5.8,2.9,12,3.6,18.4,4.7c8.5,1.4,17.2,0.2,25.7,0.8c8.2,0.6,15.9,0.7,24.1,0.3
		c1,0,1.8,0,2.6-0.1V52.6z"/>
	<path class="st4" d="M102.3,10.4c-2.9,0.1-5.7,0.5-8.5,1.2c-7,1.7-17.3,5.9-21.4,12c-5.2,7.7-6.6,18.5-6.9,27.4
		c-0.2,8.6,0.5,17.2,2.3,25.6c2,9.5,3.9,20.2,8.8,28.8c5.1,9,14.7,18.8,25.7,23.3V10.4z"/>
	<path class="st5" d="M101.9,10.8c2.9,0.1,5.7,0.5,8.5,1.2c7,1.7,17.3,5.9,21.4,12c5.2,7.7,6.6,18.5,6.9,27.4
		c0.2,8.6-0.5,17.2-2.3,25.6c-2,9.5-3.9,20.2-8.8,28.8c-5.1,9-14.7,18.8-25.7,23.3V10.8z"/>
	<path class="st6" d="M138.7,51.4c-0.2-8.9-1.7-19.8-6.9-27.4c-4.1-6.1-14.4-10.3-21.4-12c-2.8-0.7-5.6-1-8.5-1.2v3
		c7,1.8,17.2,5.9,21.3,12c5.2,7.7,6.6,18.5,6.9,27.4c0.2,8.6-0.5,17.2-2.3,25.6c-2,9.5-3.9,20.2-8.8,28.8
		c-3.7,6.5-9.8,13.5-17.1,18.6v3c11-4.5,20.6-14.3,25.7-23.3c4.9-8.6,6.8-19.2,8.8-28.8C138.2,68.6,139,60,138.7,51.4z"/>
	<path class="st7" d="M162.2,191H36.9c-1.4,0-2.6-1.1-2.6-2.6V102c0-1.4,1.1-2.6,2.6-2.6h125.3c1.4,0,2.6,1.1,2.6,2.6v86.4
		C164.8,189.9,163.6,191,162.2,191z"/>
	<path class="st8" d="M163.2,200.7h-129c-0.4,0-0.7-0.3-0.7-0.7v-5.9c0-0.4,0.3-0.7,0.7-0.7h129c0.4,0,0.7,0.3,0.7,0.7v5.9
		C163.9,200.4,163.6,200.7,163.2,200.7z"/>
	<path class="st9" d="M161.8,99.5H97.9V191h63.8c1.4,0,2.6-1.1,2.6-2.6V102C164.3,100.6,163.2,99.5,161.8,99.5z"/>
	<path class="st10" d="M162.8,193.4H97.9v7.3h64.8c0.4,0,0.7-0.3,0.7-0.7v-5.9C163.5,193.7,163.1,193.4,162.8,193.4z"/>
	<path class="st11" d="M84.4,42.9c3.1,2.5,6.9,4,10.6,5.3c5.5,1.9,11.3,3.4,17.1,2.9c8.1-0.6,14.1-5.1,20.9-9
		c7-4,13.8-9.2,16.9-16.9c-3.7,0.3-8.6-0.3-9.3-4c-0.2-1.1,0.1-2.3-0.1-3.5c-0.4-1.9-2.3-3.6-1.7-5.5c0.3-0.8,1.1-1.5,1.3-2.3
		c0.5-2-2.1-3.3-4.2-3.4c-3.7-0.2-7.4,0.9-11,0.5c-5.1-0.6-9.3-3.9-14.1-5.7C103.5-1.3,95,0.1,88.3,4.1C81.8,8,73.1,15.5,73.5,24
		C73.8,30.8,79.2,38.7,84.4,42.9z"/>
	<path class="st12" d="M99.7,81.2c0.5-1,1.8-2.6,3.2-2.1c0.8,0.3,1.4,1.4,2,1.9c1.4,1.2,3.4-0.7,2.1-1.9c-1.4-1.2-2.2-2.7-4.4-2.8
		c-2.4,0-4.5,1.6-5.4,3.5C96.4,81.4,98.9,82.8,99.7,81.2L99.7,81.2z"/>
	<path class="st12" d="M134.5,85.9c1.6-3,3.3-7.6,1.6-10.9c-1.4-2.6-4.4-3-7.2-3.1c-5.2-0.2-10.5-0.4-15.7,0.1
		c-3.1,0.3-6.5,1.2-7.7,4.2c-1.1,2.6-0.8,6.4,0.6,8.8c2,3.3,5.9,3.9,9.6,4.6C122.2,90.7,130.4,91.9,134.5,85.9
		c0.8-1.1-1.1-2.1-1.9-1c-4.7,6.7-27.3,3.9-25.5-5.6c0.8-4.4,4.2-5.2,8.4-5.3c2.7-0.1,5.3-0.2,8-0.1c1.7,0.1,3.7-0.1,5.4,0.1
		c6.7,1.2,6.1,6.4,3.7,11C132,86.1,133.9,87.1,134.5,85.9z"/>
	<path class="st13" d="M70.6,47.8c-4.5,4.5-4.2,8.5-4.4,14.3c0,0.8-1.9-3.2-2-3.3c-0.9-2.2-1.6-4.5-2.2-6.9c-1.1-4.7-1.6-9.5-1-14.3
		c0.5-3.9,1.7-7.7,4-10.9c0.7-1,8-8.8,8.1-5.1c0,0.8-0.4,1.4-0.6,2.2c-1.3,4.9,4,9.3,5.3,13.6c1.3,4-1.5,4.7-3.9,7
		C72.8,45.5,71.7,46.6,70.6,47.8z"/>
	<path class="st14" d="M45.8,187.6h-3.6c-1.4,0-2.6-1.2-2.6-2.6v-77.3c0-1.4,1.2-2.6,2.6-2.6h3.6c1.4,0,2.6,1.2,2.6,2.6V185
		C48.4,186.4,47.2,187.6,45.8,187.6z"/>
	<path class="st15" d="M161.8,99.5l-5.5,83L97.9,191h63.8c1.4,0,2.6-1.1,2.6-2.6V102C164.3,100.6,163.2,99.5,161.8,99.5z"/>
	<g>
		<g>
			<path class="st16" d="M85.2,23.5c9.4,13.8,26.6,18,42.2,13.7c1.3-0.4,0.8-2.5-0.6-2.1c-14.6,4-30.9,0.3-39.8-12.7
				C86.3,21.3,84.4,22.4,85.2,23.5L85.2,23.5z"/>
		</g>
	</g>
	<g>
		<g>
			<path class="st16" d="M92.7,21.7c4.2,3.4,8.3,7,13.5,8.6c5.8,1.7,12.3,1.7,18.3,1.4c1.4-0.1,1.4-2.3,0-2.2
				c-5.4,0.4-11,0.3-16.3-0.9c-5.6-1.3-9.7-4.9-14-8.4C93.1,19.3,91.6,20.8,92.7,21.7L92.7,21.7z"/>
		</g>
	</g>
	<g>
		<g>
			<path class="st16" d="M99.1,16.4c8,7.5,18.8,7.8,29.1,7.4c1.4-0.1,1.4-2.2,0-2.2c-9.7,0.4-20.1,0.4-27.6-6.8
				C99.6,14,98.1,15.5,99.1,16.4L99.1,16.4z"/>
		</g>
	</g>
	<g>
		<g>
			<path class="st17" d="M79.9,18.7c7.4-8.5,21.1-15.6,31.5-8.9c7.9,5.2,17,7.2,25.3,1.5c2.7-1.9,0.1-6.4-2.6-4.5
				c-5.8,4-12.5,3.5-18.3-0.3c-4.2-2.7-8-5.1-13.2-4.9c-9.9,0.3-20,6.1-26.3,13.4C74.1,17.6,77.7,21.3,79.9,18.7L79.9,18.7z"/>
		</g>
	</g>
	<g>
		<g>
			<path class="st18" d="M21,152.2c3.7-4.1,8.2-7,13.5-8.7c1.6-0.5,0.9-3-0.7-2.5c-5.7,1.8-10.6,4.9-14.6,9.3
				C18.1,151.6,19.9,153.4,21,152.2L21,152.2z"/>
		</g>
	</g>
	<g>
		<g>
			<path class="st19" d="M57.7,59.8c-8.3,1.6-17.4,4.7-24.2,9.8c-6.5,5-10.3,13.3-13.6,20.6c-7.8,16.9-14,34.4-17.8,52.6
				c-0.8,4.1,5.4,5.8,6.2,1.7c3.4-16.4,8.9-31.9,15.5-47.3c3-7,6.4-15.8,12-21.1c6-5.7,15.7-8.5,23.6-10
				C63.5,65.3,61.8,59,57.7,59.8L57.7,59.8z"/>
		</g>
	</g>
	<g>
		<g>
			<path class="st20" d="M67.4,59.1c1.7,13,2.7,26.1,9.3,37.8c1,1.8,3.8,0.2,2.8-1.6c-6.2-11.2-7.2-23.7-8.8-36.2
				C70.3,57.1,67.1,57.1,67.4,59.1L67.4,59.1z"/>
		</g>
	</g>
	<path class="st12" d="M71.4,85.6c-2.2-4.2-3.1-9.4,3.1-10.9c1.5-0.4,3.5-0.1,5.1-0.1c2.7-0.1,5.4,0,8.2,0.1
		c4.3,0.2,8.5,0.2,9.2,5.4c0.9,6.6-6.3,7.9-11.5,8.7C80.6,89.4,74.4,89.9,71.4,85.6c-0.8-1.1-2.7-0.1-1.9,1
		c4.2,5.9,12.3,4.8,18.8,3.6c3.3-0.6,7.2-1.1,9.3-4c1.7-2.4,2.2-6.7,1-9.4c-1.2-2.7-4.1-3.7-7-4.1c-5.4-0.6-11-0.4-16.4-0.2
		c-2.7,0.1-5.8,0.4-7.2,3c-1.8,3.3,0,8,1.6,11.1C70.1,87.8,72,86.8,71.4,85.6z"/>
	<g>
		<g>
			<path class="st21" d="M79.2,153.1c-5-4-10-8-15-12.1c0,0.8,0,1.6,0,2.4c5.5-4.4,11-8.8,16.5-13.2c1.7-1.4-0.7-3.7-2.4-2.4
				c-5.5,4.4-11,8.8-16.5,13.2c-0.7,0.5-0.7,1.9,0,2.4c5,4,10,8,15,12.1C78.5,156.9,80.9,154.5,79.2,153.1L79.2,153.1z"/>
		</g>
	</g>
	<g>
		<g>
			<path class="st21" d="M118.9,162.3c5.7-3,11.4-6,17-9c1-0.5,1-1.9,0.3-2.6c-4.6-5.4-9.1-10.7-13.7-16.1c-1.4-1.7-3.8,0.7-2.4,2.4
				c4.6,5.4,9.1,10.7,13.7,16.1c0.1-0.9,0.2-1.8,0.3-2.6c-5.7,3-11.4,6-17,9C115.3,160.4,117,163.3,118.9,162.3L118.9,162.3z"/>
		</g>
	</g>
	<g>
		<g>
			<path class="st21" d="M77.1,176.4c14.8-20.3,29.6-40.6,44.4-60.9c1-1.3-1.3-2.6-2.2-1.3c-14.8,20.3-29.6,40.6-44.4,60.9
				C73.8,176.4,76.1,177.7,77.1,176.4L77.1,176.4z"/>
		</g>
	</g>
</g>
</svg>
